<svg xmlns="http://www.w3.org/2000/svg" width="238" height="274" fill="none" viewBox="0 0 238 274"><path stroke="#2D9FFF" stroke-linecap="round" stroke-linejoin="round" stroke-width=".726" d="M161.119 126.136 4.579 105.79l51.443-89.438 105.097 109.784Z"/><path stroke="#0500FF" stroke-linecap="round" stroke-linejoin="round" stroke-width=".581" d="m61.484 271.497.794 1.435"/><path fill="url(#a)" d="m71.043 85.846 22.44-25.923 31.204 45.437v83.421l-9.288 10.829-44.356-31.251V85.846Z"/><path stroke="#1B1B1C" stroke-linecap="round" stroke-linejoin="round" stroke-width=".581" d="m104.07 156.673 3.779 5.653m-36.806-55.083 30.543 45.724"/><path fill="#1B1B1C" d="M71.043 85.844v13.22l53.644 79.194v-61.536L89.409 64.628 71.043 85.844Z"/><path fill="url(#b)" stroke="#0500FF" stroke-linecap="round" stroke-linejoin="round" stroke-width=".581" d="M68.727 61.472 86.9 20.34 99.67 1.132l2.86 28.61-9.049 30.18-22.44 25.923-2.315-24.373Z"/><path fill="#48FF91" stroke="#0500FF" stroke-linecap="round" stroke-linejoin="round" stroke-width=".581" d="m124.695 105.356 15.219-20.394-26.698-51.157-10.675-4.065-9.049 30.18 31.203 45.436Z"/><path fill="#0500FF" d="m97.336 46.986 18.758-7.614-2.908-5.567-10.675-4.065-5.175 17.247Z"/><path fill="#1B1B1C" stroke="#0500FF" stroke-linecap="round" stroke-linejoin="round" stroke-width=".581" d="m61.766 169.783 9.278-1.426 44.356 31.251 2.583 29.481-26.822-16.5-29.395-42.806Zm0-.001V81.234l6.963-19.763 2.315 24.373v82.513l-9.278 1.425Z"/><path fill="#48FF91" stroke="#0500FF" stroke-linecap="round" stroke-linejoin="round" stroke-width=".581" d="m99.676 1.132 9.154 7.346 4.381 25.33-10.675-4.066-2.86-28.61Z"/><path fill="url(#c)" stroke="#0500FF" stroke-linecap="round" stroke-linejoin="round" stroke-width=".581" d="M149.188 100.958v70.757l-8.915 32.293-15.601-15.228v-83.422l15.219-20.394 9.297 15.994Z"/><path fill="#1B1B1C" stroke="#0500FF" stroke-linecap="round" stroke-linejoin="round" stroke-width=".581" d="m117.985 229.092 22.307-25.081-15.601-15.228-9.289 10.828 2.583 29.481Z"/><path fill="#F4F4F7" stroke="#0500FF" stroke-linecap="round" stroke-linejoin="round" stroke-width=".581" d="m108.828 8.475 31.461 62.368 8.915 30.112-9.297-15.993-26.698-51.157-4.381-25.33Z"/><path stroke="#2D9FFF" stroke-linecap="round" stroke-linejoin="round" stroke-width=".726" d="m228.92 172.883-67.811-46.747 37.641-7.385 30.17 54.132Zm.003 0L80.656 218.53"/><path fill="#1B1B1C" stroke="#0500FF" stroke-linecap="round" stroke-linejoin="round" stroke-width=".581" d="m45.805 13.957 6.763 15.133 12.062-1.062-6.59-13.994-12.235-.077Z"/><path fill="#48FF91" stroke="#0500FF" stroke-linecap="round" stroke-linejoin="round" stroke-width=".581" d="m64.634 28.027 1.568-8.064-6.6-13.784-1.559 7.854 6.59 13.994ZM45.805 13.953l12.234.076 1.56-7.853-9.375-2.554-4.42 10.33Z"/><path fill="#2D9FFF" stroke="#0500FF" stroke-linecap="round" stroke-linejoin="round" stroke-width=".581" d="m45.805 13.953 4.419-10.33 7.815 10.406-12.234-.076Z"/><path fill="#1B1B1C" stroke="#0500FF" stroke-linecap="round" stroke-linejoin="round" stroke-width=".581" d="m197.303 113.824-4.401 5.778 4.401 5.146 6.925-3.845-1.377-5.692-5.548-1.387Z"/><path fill="#48FF91" stroke="#0500FF" stroke-linecap="round" stroke-linejoin="round" stroke-width=".581" d="m197.305 113.825 6.925 7.079.411-7.404-7.336.325ZM.336 112.653l12.148-10.981-12.148-4.2v15.181Z"/><path fill="#1B1B1C" stroke="#0500FF" stroke-linecap="round" stroke-linejoin="round" stroke-width=".581" d="M.336 112.653h11.278l.87-10.981L.336 112.653Z"/><path fill="#48FF91" stroke="#0500FF" stroke-linecap="round" stroke-linejoin="round" stroke-width=".581" d="m215.988 168.99 21.676 10.159-5.94-18.739-15.736 8.58Z"/><path fill="#1B1B1C" stroke="#0500FF" stroke-linecap="round" stroke-linejoin="round" stroke-width=".581" d="m215.988 168.991 7.165 11.756 14.511-1.598-21.676-10.158Z"/><path fill="#48FF91" stroke="#0500FF" stroke-linecap="round" stroke-linejoin="round" stroke-width=".581" d="m80.527 219.016 10.465.086-9.891-9.958-6.667 3.425 6.093 6.447Z"/><path fill="#1B1B1C" stroke="#0500FF" stroke-linecap="round" stroke-linejoin="round" stroke-width=".581" d="m72.723 223.48 6.638 3.291 11.632-7.672-10.465-.086-7.805 4.467Z"/><path fill="#48FF91" stroke="#0500FF" stroke-linecap="round" stroke-linejoin="round" stroke-width=".581" d="m74.435 212.567 6.093 6.447-7.805 4.467 1.712-10.914Z"/><defs><linearGradient id="a" x1="83.909" x2="131.096" y1="112.486" y2="194.875" gradientUnits="userSpaceOnUse"><stop stop-color="#0500FF"/><stop offset=".14" stop-color="#0604FF"/><stop offset=".3" stop-color="#0912FF"/><stop offset=".47" stop-color="#0F29FF"/><stop offset=".65" stop-color="#174AFF"/><stop offset=".84" stop-color="#2273FF"/><stop offset="1" stop-color="#2D9FFF"/></linearGradient><linearGradient id="b" x1="74.399" x2="97.347" y1="42.379" y2="44.703" gradientUnits="userSpaceOnUse"><stop stop-color="#48FF91"/><stop offset=".16" stop-color="#46F898"/><stop offset=".39" stop-color="#41E6AC"/><stop offset=".66" stop-color="#39C9CD"/><stop offset=".98" stop-color="#2DA2FB"/><stop offset="1" stop-color="#2D9FFF"/></linearGradient><linearGradient id="c" x1="167.43" x2="112.246" y1="188.11" y2="107.654" gradientUnits="userSpaceOnUse"><stop stop-color="#48FF91"/><stop offset=".16" stop-color="#46F898"/><stop offset=".39" stop-color="#41E6AC"/><stop offset=".66" stop-color="#39C9CD"/><stop offset=".98" stop-color="#2DA2FB"/><stop offset="1" stop-color="#2D9FFF"/></linearGradient></defs></svg>